<?xml version="1.0" encoding="UTF-8" standalone="no"?>
<!-- Generator: Adobe Illustrator 17.1.0, SVG Export Plug-In . SVG Version: 6.00 Build 0)  -->

<svg
   version="1.1"
   id="Capa_1"
   x="0px"
   y="0px"
   viewBox="0 0 330.242 330.242"
   style="enable-background:new 0 0 330.242 330.242;"
   xml:space="preserve"
   sodipodi:docname="home.svg"
   inkscape:version="1.2.1 (9c6d41e410, 2022-07-14, custom)"
   xmlns:inkscape="http://www.inkscape.org/namespaces/inkscape"
   xmlns:sodipodi="http://sodipodi.sourceforge.net/DTD/sodipodi-0.dtd"
   xmlns="http://www.w3.org/2000/svg"
   xmlns:svg="http://www.w3.org/2000/svg"><defs
   id="defs37" /><sodipodi:namedview
   id="namedview35"
   pagecolor="#505050"
   bordercolor="#ffffff"
   borderopacity="1"
   inkscape:showpageshadow="0"
   inkscape:pageopacity="0"
   inkscape:pagecheckerboard="1"
   inkscape:deskcolor="#505050"
   showgrid="false"
   inkscape:zoom="0.71462745"
   inkscape:cx="165.121"
   inkscape:cy="165.82067"
   inkscape:window-width="1920"
   inkscape:window-height="1058"
   inkscape:window-x="1680"
   inkscape:window-y="0"
   inkscape:window-maximized="1"
   inkscape:current-layer="Capa_1" />
<path
   d="M324.442,129.811l-41.321-33.677V42.275c0-6.065-4.935-11-11-11h-26c-6.065,0-11,4.935-11,11v14.737l-55.213-44.999  c-3.994-3.254-9.258-5.047-14.822-5.047c-5.542,0-10.781,1.782-14.753,5.019L5.8,129.81c-6.567,5.351-6.173,10.012-5.354,12.314  c0.817,2.297,3.448,6.151,11.884,6.151h19.791v154.947c0,11.058,8.972,20.053,20,20.053h62.5c10.935,0,19.5-8.809,19.5-20.053  v-63.541c0-5.446,5.005-10.405,10.5-10.405h42c5.238,0,9.5,4.668,9.5,10.405v63.541c0,10.87,9.388,20.053,20.5,20.053h61.5  c11.028,0,20-8.996,20-20.053V148.275h19.791c8.436,0,11.066-3.854,11.884-6.151C330.615,139.822,331.009,135.161,324.442,129.811z"
   id="path2"
   style="fill:#ffffff" />
<g
   id="g4">
</g>
<g
   id="g6">
</g>
<g
   id="g8">
</g>
<g
   id="g10">
</g>
<g
   id="g12">
</g>
<g
   id="g14">
</g>
<g
   id="g16">
</g>
<g
   id="g18">
</g>
<g
   id="g20">
</g>
<g
   id="g22">
</g>
<g
   id="g24">
</g>
<g
   id="g26">
</g>
<g
   id="g28">
</g>
<g
   id="g30">
</g>
<g
   id="g32">
</g>
</svg>
