<?xml version="1.0" encoding="UTF-8" standalone="no"?>
<!-- Generator: Adobe Illustrator 19.0.0, SVG Export Plug-In . SVG Version: 6.00 Build 0)  -->

<svg
   version="1.1"
   id="Capa_1"
   x="0px"
   y="0px"
   viewBox="0 0 390 390"
   style="enable-background:new 0 0 390 390;"
   xml:space="preserve"
   sodipodi:docname="siren.svg"
   inkscape:version="1.2.1 (9c6d41e410, 2022-07-14, custom)"
   xmlns:inkscape="http://www.inkscape.org/namespaces/inkscape"
   xmlns:sodipodi="http://sodipodi.sourceforge.net/DTD/sodipodi-0.dtd"
   xmlns="http://www.w3.org/2000/svg"
   xmlns:svg="http://www.w3.org/2000/svg"><defs
   id="defs41" /><sodipodi:namedview
   id="namedview39"
   pagecolor="#505050"
   bordercolor="#ffffff"
   borderopacity="1"
   inkscape:showpageshadow="0"
   inkscape:pageopacity="0"
   inkscape:pagecheckerboard="1"
   inkscape:deskcolor="#505050"
   showgrid="false"
   inkscape:zoom="0.60512821"
   inkscape:cx="195"
   inkscape:cy="195.82627"
   inkscape:window-width="1920"
   inkscape:window-height="1058"
   inkscape:window-x="1680"
   inkscape:window-y="0"
   inkscape:window-maximized="1"
   inkscape:current-layer="Capa_1" />
<g
   id="XMLID_532_"
   style="fill:#ffffff">
	<path
   id="XMLID_533_"
   d="M70,190c0-8.284-6.716-15-15-15l-40-0.001c-8.283,0-15,6.716-15,15c0,8.284,6.716,15,15,15L55,205   C63.283,205,70,198.284,70,190z"
   style="fill:#ffffff" />
	<path
   id="XMLID_534_"
   d="M18.571,116.408l36.14,17.145c2.076,0.984,4.264,1.451,6.419,1.451c5.612,0,10.996-3.166,13.562-8.575   c3.551-7.484,0.361-16.431-7.124-19.981l-36.14-17.145c-7.484-3.549-16.43-0.361-19.981,7.124   C7.897,103.911,11.086,112.857,18.571,116.408z"
   style="fill:#ffffff" />
	<path
   id="XMLID_535_"
   d="M375,174.999L335,175c-8.284,0-15,6.716-15,15s6.716,15,15,15l40-0.001c8.284,0,15-6.716,15-15   C390,181.715,383.284,174.999,375,174.999z"
   style="fill:#ffffff" />
	<path
   id="XMLID_536_"
   d="M328.87,135.004c2.155,0,4.344-0.467,6.419-1.451l36.14-17.145c7.485-3.551,10.675-12.497,7.124-19.981   c-3.551-7.484-12.497-10.673-19.981-7.124l-36.14,17.145c-7.485,3.551-10.675,12.497-7.124,19.981   C317.874,131.838,323.257,135.004,328.87,135.004z"
   style="fill:#ffffff" />
	<path
   id="XMLID_782_"
   d="M315,275h-10.093L279.901,58.28C279.027,50.712,272.619,45,265,45H125c-7.619,0-14.027,5.712-14.901,13.28   L85.093,275H75c-19.33,0-35,15.67-35,35s15.67,35,35,35h240c19.33,0,35-15.67,35-35S334.33,275,315,275z M138.369,75H195v200   h-79.709L138.369,75L138.369,75z"
   style="fill:#ffffff" />
</g>
<g
   id="g8">
</g>
<g
   id="g10">
</g>
<g
   id="g12">
</g>
<g
   id="g14">
</g>
<g
   id="g16">
</g>
<g
   id="g18">
</g>
<g
   id="g20">
</g>
<g
   id="g22">
</g>
<g
   id="g24">
</g>
<g
   id="g26">
</g>
<g
   id="g28">
</g>
<g
   id="g30">
</g>
<g
   id="g32">
</g>
<g
   id="g34">
</g>
<g
   id="g36">
</g>
</svg>
