<?xml version="1.0" encoding="UTF-8" standalone="no"?>
<!-- Generator: Adobe Illustrator 19.0.0, SVG Export Plug-In . SVG Version: 6.00 Build 0)  -->

<svg
   version="1.1"
   id="Layer_1"
   x="0px"
   y="0px"
   viewBox="0 0 512 512"
   style="enable-background:new 0 0 512 512;"
   xml:space="preserve"
   sodipodi:docname="weather.svg"
   inkscape:version="1.2.1 (9c6d41e410, 2022-07-14, custom)"
   xmlns:inkscape="http://www.inkscape.org/namespaces/inkscape"
   xmlns:sodipodi="http://sodipodi.sourceforge.net/DTD/sodipodi-0.dtd"
   xmlns="http://www.w3.org/2000/svg"
   xmlns:svg="http://www.w3.org/2000/svg"><defs
   id="defs47" /><sodipodi:namedview
   id="namedview45"
   pagecolor="#505050"
   bordercolor="#ffffff"
   borderopacity="1"
   inkscape:showpageshadow="0"
   inkscape:pageopacity="0"
   inkscape:pagecheckerboard="1"
   inkscape:deskcolor="#505050"
   showgrid="false"
   inkscape:zoom="0.4609375"
   inkscape:cx="256"
   inkscape:cy="257.08475"
   inkscape:window-width="1680"
   inkscape:window-height="1028"
   inkscape:window-x="3600"
   inkscape:window-y="30"
   inkscape:window-maximized="1"
   inkscape:current-layer="Layer_1" />
<g
   id="g6"
   style="fill:#ffffff">
	<g
   id="g4"
   style="fill:#ffffff">
		<path
   d="M452.286,221.55c-3.293-25.818-13.51-49.499-28.713-69.134l42.279-42.279L440.14,84.425l-42.279,42.279    c-19.635-15.204-43.317-25.419-69.134-28.713V38.277h-36.363v59.715c-25.817,3.293-49.499,13.509-69.134,28.713l-42.277-42.277    l-25.713,25.713l42.277,42.277c-9.985,12.897-17.813,27.54-22.947,43.388c17.179,3.51,33.37,10.741,47.706,21.418    c12.116,9.023,22.274,20.013,30.144,32.505c13.433,0.507,26.173,3.758,37.689,9.191h68.16    c-1.653,16.661-11.831,30.812-26.11,38.033c7.119,11.821,11.817,25.257,13.356,39.63c12.805,7.206,23.684,17.359,31.79,29.454    c7.242-3.844,14.116-8.29,20.555-13.275l42.279,42.277l25.713-25.713l-42.279-42.277c15.204-19.635,25.421-43.316,28.713-69.134    H512v-0.001V221.55H452.286z M264.847,233.931c-10.041,0-18.182-8.141-18.182-18.182c0-10.041,8.141-18.182,18.182-18.182    s18.182,8.141,18.182,18.182C283.029,225.79,274.888,233.931,264.847,233.931z M356.243,233.931    c-10.041,0-18.182-8.141-18.182-18.182c0-10.041,8.141-18.182,18.182-18.182s18.182,8.141,18.182,18.182    C374.425,225.79,366.286,233.931,356.243,233.931z"
   id="path2"
   style="fill:#ffffff" />
	</g>
</g>
<g
   id="g12"
   style="fill:#ffffff">
	<g
   id="g10"
   style="fill:#ffffff">
		<path
   d="M307.935,361.635c1.152-4.682,1.775-9.572,1.775-14.611c0-33.691-27.313-61.003-61.003-61.003    c-6.261,0-12.299,0.947-17.985,2.698c-10.8-34.207-42.782-59.009-80.558-59.009c-46.649,0-84.467,37.817-84.467,84.466    c0,6.475,0.732,12.778,2.11,18.836C30.13,334.372,0,365.327,0,403.335c0,38.874,31.514,70.388,70.388,70.388    c38.875,0,229.936,0,229.936,0c30.971,0,56.31-25.339,56.31-56.31C356.635,389.022,335.339,365.38,307.935,361.635z"
   id="path8"
   style="fill:#ffffff" />
	</g>
</g>
<g
   id="g14">
</g>
<g
   id="g16">
</g>
<g
   id="g18">
</g>
<g
   id="g20">
</g>
<g
   id="g22">
</g>
<g
   id="g24">
</g>
<g
   id="g26">
</g>
<g
   id="g28">
</g>
<g
   id="g30">
</g>
<g
   id="g32">
</g>
<g
   id="g34">
</g>
<g
   id="g36">
</g>
<g
   id="g38">
</g>
<g
   id="g40">
</g>
<g
   id="g42">
</g>
</svg>
